<?xml version="1.0" standalone="no"?>
<!DOCTYPE svg PUBLIC "-//W3C//DTD SVG 20010904//EN"
 "http://www.w3.org/TR/2001/REC-SVG-20010904/DTD/svg10.dtd">
<svg version="1.0" xmlns="http://www.w3.org/2000/svg"
 width="496.000000pt" height="276.000000pt" viewBox="0 0 496.000000 276.000000"
 preserveAspectRatio="xMidYMid meet">

<g transform="translate(0.000000,276.000000) scale(0.100000,-0.100000)"
fill="#000000" stroke="none">
<path d="M2117 2153 c-4 -7 -94 -228 -168 -415 l-19 -48 44 0 44 0 43 110 c24
60 47 110 50 110 3 0 23 -46 44 -102 20 -57 41 -107 45 -111 4 -4 45 -7 93 -5
l86 3 -94 230 -93 230 -35 3 c-19 2 -37 -1 -40 -5z"/>
<path d="M2866 2133 c1 -25 6 -29 53 -38 63 -12 96 -41 105 -92 3 -21 6 -100
6 -175 l0 -138 85 0 85 0 0 148 c0 215 13 245 112 258 45 6 48 9 48 35 l0 29
-248 0 -248 0 2 -27z"/>
<path d="M702 1643 c-5 -10 -37 -89 -71 -175 -45 -112 -68 -159 -82 -163 -37
-12 -18 -25 36 -25 53 0 72 11 40 24 -19 7 -19 37 -1 81 15 35 15 35 80 35
l64 0 17 -50 c18 -54 14 -70 -16 -70 -10 0 -19 -4 -19 -10 0 -6 33 -10 80 -10
81 0 98 7 58 25 -17 8 -40 52 -93 183 -38 94 -73 172 -77 172 -4 0 -11 -8 -16
-17z m32 -141 l25 -62 -55 0 c-30 0 -54 4 -54 9 0 15 51 124 56 119 2 -3 15
-33 28 -66z"/>
<path d="M960 1651 c0 -5 11 -12 25 -15 l25 -6 0 -160 0 -160 -25 -6 c-61 -15
-14 -24 129 -24 170 0 166 -1 166 66 0 43 -11 43 -30 1 -12 -25 -23 -34 -57
-41 -54 -11 -110 0 -123 24 -6 12 -9 76 -8 157 3 132 4 138 26 148 39 17 24
25 -53 25 -41 0 -75 -4 -75 -9z"/>
<path d="M1350 1652 c0 -4 10 -12 23 -17 21 -10 22 -15 25 -159 3 -154 -2
-176 -39 -176 -11 0 -19 -4 -19 -10 0 -6 58 -10 154 -10 l154 0 4 46 c4 54 -8
68 -23 25 -8 -21 -21 -33 -46 -42 -41 -13 -112 -6 -124 13 -5 7 -9 44 -9 82
l0 69 32 -7 c36 -7 58 -23 58 -42 0 -8 5 -14 10 -14 6 0 10 28 10 65 0 37 -4
65 -10 65 -5 0 -10 -7 -10 -15 0 -18 -31 -35 -65 -35 -26 0 -26 0 -23 73 3 67
4 72 27 75 13 2 44 1 68 -3 35 -5 48 -13 62 -37 22 -36 32 -25 24 25 l-6 37
-138 0 c-77 0 -139 -3 -139 -8z"/>
<path d="M1720 1651 c0 -5 10 -11 23 -15 19 -4 120 -125 133 -159 7 -18 -115
-166 -142 -173 -45 -12 -24 -24 41 -24 37 0 65 4 65 10 0 6 -6 10 -14 10 -8 0
-17 4 -20 9 -7 10 79 131 93 131 10 0 81 -108 81 -123 0 -5 -9 -11 -20 -14
-46 -12 -15 -23 65 -23 81 0 111 11 62 24 -20 5 -147 161 -147 181 0 20 107
146 127 151 44 12 22 24 -41 24 -64 0 -95 -13 -56 -23 11 -3 20 -12 20 -20 0
-22 -59 -99 -73 -94 -7 2 -25 25 -42 51 -27 45 -28 49 -12 61 9 7 17 15 17 19
0 3 -36 6 -80 6 -44 0 -80 -4 -80 -9z"/>
<path d="M2330 1650 c0 -5 7 -10 15 -10 8 0 19 -9 25 -19 11 -22 12 -370 1
-411 -10 -35 -39 -37 -69 -5 -22 24 -26 25 -39 12 -37 -37 39 -81 100 -58 15
6 36 25 47 43 18 30 20 51 20 230 l0 198 25 6 c49 12 24 24 -50 24 -43 0 -75
-4 -75 -10z"/>
<path d="M2640 1494 c-41 -104 -73 -173 -87 -184 -13 -10 -23 -21 -23 -24 0
-3 25 -6 55 -6 53 0 72 11 40 24 -19 7 -19 37 -1 81 15 35 15 35 80 35 l64 0
17 -50 c18 -54 14 -70 -16 -70 -10 0 -19 -4 -19 -10 0 -6 33 -10 80 -10 81 0
98 7 58 25 -17 8 -40 52 -93 183 -38 94 -74 172 -80 172 -5 0 -39 -75 -75
-166z m109 -41 c1 -9 -15 -13 -49 -13 -27 0 -50 4 -50 9 0 5 7 26 16 47 9 22
21 50 26 64 10 24 11 22 34 -35 12 -33 23 -66 23 -72z"/>
<path d="M2960 1652 c0 -4 10 -12 23 -17 21 -10 22 -15 25 -167 l3 -157 -26
-7 c-46 -11 -26 -24 40 -24 37 0 65 4 65 10 0 6 -6 10 -14 10 -31 0 -37 27
-34 156 3 108 5 125 15 104 6 -14 36 -81 66 -150 30 -68 58 -125 63 -127 5 -1
38 64 73 145 35 81 68 151 73 157 12 13 10 -243 -2 -266 -6 -10 -17 -19 -25
-19 -8 0 -15 -4 -15 -10 0 -6 32 -10 75 -10 43 0 75 4 75 10 0 6 -7 10 -15 10
-27 0 -35 38 -35 170 0 132 8 170 35 170 8 0 15 5 15 10 0 7 -22 10 -56 8
l-55 -3 -59 -135 c-32 -74 -62 -136 -67 -137 -4 -2 -35 60 -67 137 l-59 140
-58 0 c-33 0 -59 -3 -59 -8z"/>
<path d="M3631 1638 c-28 -14 -54 -38 -73 -67 -26 -41 -29 -53 -26 -112 4 -81
37 -131 106 -161 63 -28 155 -22 210 14 86 57 108 187 46 266 -63 79 -174 104
-263 60z m154 -18 c50 -24 75 -65 82 -134 7 -64 -21 -135 -63 -163 -39 -25
-114 -24 -151 3 -61 45 -81 148 -44 229 21 46 38 63 78 75 43 13 53 12 98 -10z"/>
<path d="M4020 1651 c0 -6 4 -11 9 -11 5 0 17 -7 25 -16 13 -12 16 -41 16
-150 0 -141 -8 -174 -40 -174 -11 0 -20 -4 -20 -10 0 -6 28 -10 65 -10 63 0
86 12 45 23 -19 5 -20 14 -20 136 0 72 2 131 4 131 1 0 52 -65 112 -145 65
-86 116 -145 126 -145 16 0 18 17 20 173 3 168 4 172 26 182 37 16 25 25 -36
25 -66 0 -82 -8 -49 -24 21 -11 22 -18 25 -136 1 -68 -1 -121 -5 -116 -4 4
-53 67 -108 139 l-100 132 -47 3 c-29 2 -48 -1 -48 -7z"/>
<path d="M1638 1015 c-24 -23 -51 -37 -78 -41 -38 -6 -40 -9 -40 -40 l0 -34
196 0 195 0 -3 33 c-3 29 -6 32 -45 38 -50 6 -73 24 -73 55 0 23 -4 24 -57 24
-52 -1 -62 -4 -95 -35z"/>
<path d="M2430 1035 c0 -9 -11 -27 -25 -40 -19 -20 -34 -25 -75 -25 l-50 0 0
-35 0 -35 265 0 265 0 0 34 c0 32 -1 34 -47 39 -38 4 -54 12 -80 41 l-33 36
-110 0 c-93 0 -110 -2 -110 -15z"/>
<path d="M3028 878 c-4 -153 -7 -179 -28 -226 -28 -65 -61 -92 -110 -92 -41 0
-60 17 -105 90 -35 59 -51 70 -96 70 -29 0 -42 -6 -58 -26 -46 -58 -12 -141
74 -184 43 -22 63 -25 150 -25 83 0 108 4 150 23 137 63 194 193 195 445 l0
97 -84 0 -83 0 -5 -172z"/>
</g>
</svg>
